# xmcd
#
# Track frame offsets: 
#        150
#        2394
#        20756
#        45993
#        62166
#        64417
#        80948
#        100415
#        122847
#        135121
#        136719
#        156320
#        175775
#        193143
#        196173
#        211943
#
# Disc length: 3049 seconds
#
# Revision: 0
# Processed by: cddbd v1.5.2PL0 Copyright (c) Steve Scherf et al.
# Submitted via: ExactAudioCopy v0.99pb4
#
DISCID=da0be710
DTITLE=Fingazz - Classics For The Og's: Vol.2
DYEAR=2008
DGENRE=R&B
TTITLE0=Intro
TTITLE1=Curious
TTITLE2=Footsteps In The Dark
TTITLE3=Summer Breeze
TTITLE4=The Homeboy (skit) - Lil Rob
TTITLE5=Didn't I Blow Your Mind
TTITLE6=Cold Blooded
TTITLE7=Yearing For your Love
TTITLE8=Ooh Baby Baby
TTITLE9=The Homegirl (skit) - La La
TTITLE10=Nobody
TTITLE11=Love TKO 
TTITLE12=Rock With You
TTITLE13=Outro
TTITLE14=Sexy Buddy
TTITLE15=I Miss You
EXTD=
EXTT0=
EXTT1=
EXTT2=
EXTT3=
EXTT4=
EXTT5=
EXTT6=
EXTT7=
EXTT8=
EXTT9=
EXTT10=
EXTT11=
EXTT12=
EXTT13=
EXTT14=
EXTT15=
PLAYORDER=
